# xmcd
#
# Track frame offsets:
#	150
#	14276
#	29752
#	46803
#	61593
#
# Disc length: 1026 seconds
#
# Revision: 1
# Processed by: cddbd v1.5.2PL0 Copyright (c) Steve Scherf et al.
# Submitted via: audiograbber 1.83.01
#
DISCID=35040005
DTITLE=Luke Combs - The Prequel - EP
DYEAR=2019
DGENRE=Coutry
TTITLE0=Beer Never Broke My Heart
TTITLE1=Refrigerator Door
TTITLE2=Even Though I'm Leaving
TTITLE3=Lovin' On You
TTITLE4=Moon Over Mexico
EXTD=
EXTT0=
EXTT1=
EXTT2=
EXTT3=
EXTT4=
PLAYORDER=
